<?xml version="1.0" encoding="UTF-8" standalone="no"?>
<!DOCTYPE svg PUBLIC "-//W3C//DTD SVG 1.1//EN"
 "http://www.w3.org/Graphics/SVG/1.1/DTD/svg11.dtd">
<!-- Generated by graphviz version 2.40.1 (20161225.0304)
 -->
<!-- Title: control_flow_graph Pages: 1 -->
<svg width="277pt" height="690pt"
 viewBox="0.00 0.00 276.86 689.76" xmlns="http://www.w3.org/2000/svg" xmlns:xlink="http://www.w3.org/1999/xlink">
<g id="graph0" class="graph" transform="scale(1 1) rotate(0) translate(4 685.7607)">
<title>control_flow_graph</title>
<polygon fill="#ffffff" stroke="transparent" points="-4,4 -4,-685.7607 272.8551,-685.7607 272.8551,4 -4,4"/>
<!-- 5 -->
<g id="node1" class="node">
<title>5</title>
<ellipse fill="none" stroke="#000000" cx="149.6935" cy="-22" rx="18" ry="18"/>
<ellipse fill="none" stroke="#000000" cx="149.6935" cy="-22" rx="22" ry="22"/>
<text text-anchor="middle" x="149.6935" y="-17.8" font-family="Times,serif" font-size="14.00" fill="#000000">5</text>
</g>
<!-- 4 -->
<g id="node2" class="node">
<title>4</title>
<ellipse fill="none" stroke="#000000" cx="149.6935" cy="-663.7607" rx="18" ry="18"/>
<text text-anchor="middle" x="149.6935" y="-659.5607" font-family="Times,serif" font-size="14.00" fill="#000000">4</text>
</g>
<!-- 7 -->
<g id="node3" class="node">
<title>7</title>
<ellipse fill="none" stroke="#000000" cx="149.6935" cy="-574.9607" rx="18" ry="18"/>
<text text-anchor="middle" x="149.6935" y="-570.7607" font-family="Times,serif" font-size="14.00" fill="#000000">7</text>
</g>
<!-- 4&#45;&gt;7 -->
<g id="edge1" class="edge">
<title>4&#45;&gt;7</title>
<path fill="none" stroke="#000000" d="M149.6935,-645.3613C149.6935,-633.2556 149.6935,-617.1683 149.6935,-603.4281"/>
<polygon fill="#000000" stroke="#000000" points="153.1935,-603.0327 149.6935,-593.0327 146.1935,-603.0328 153.1935,-603.0327"/>
<text text-anchor="middle" x="206.7092" y="-615.1607" font-family="Times,serif" font-size="14.00" fill="#000000"> num = $$params[0]</text>
</g>
<!-- 8 -->
<g id="node4" class="node">
<title>8</title>
<ellipse fill="none" stroke="#000000" cx="149.6935" cy="-486.1607" rx="18" ry="18"/>
<text text-anchor="middle" x="149.6935" y="-481.9607" font-family="Times,serif" font-size="14.00" fill="#000000">8</text>
</g>
<!-- 7&#45;&gt;8 -->
<g id="edge2" class="edge">
<title>7&#45;&gt;8</title>
<path fill="none" stroke="#000000" d="M149.6935,-556.5613C149.6935,-544.4556 149.6935,-528.3683 149.6935,-514.6281"/>
<polygon fill="#000000" stroke="#000000" points="153.1935,-514.2327 149.6935,-504.2327 146.1935,-514.2328 153.1935,-514.2327"/>
<text text-anchor="middle" x="172.881" y="-526.3607" font-family="Times,serif" font-size="14.00" fill="#000000"> fact = 1</text>
</g>
<!-- 9 -->
<g id="node5" class="node">
<title>9</title>
<ellipse fill="none" stroke="#000000" cx="102.6935" cy="-397.3607" rx="18" ry="18"/>
<text text-anchor="middle" x="102.6935" y="-393.1607" font-family="Times,serif" font-size="14.00" fill="#000000">9</text>
</g>
<!-- 8&#45;&gt;9 -->
<g id="edge6" class="edge">
<title>8&#45;&gt;9</title>
<path fill="none" stroke="#ffa500" d="M138.6506,-471.9149C133.95,-465.4799 128.6174,-457.6527 124.5137,-450.1607 119.9929,-441.9075 115.826,-432.5196 112.3716,-423.9717"/>
<polygon fill="#ffa500" stroke="#ffa500" points="115.5519,-422.4928 108.6652,-414.4414 109.0279,-425.03 115.5519,-422.4928"/>
<text text-anchor="middle" x="153.7834" y="-437.5607" font-family="Times,serif" font-size="14.00" fill="#ffa500"> num &gt;= 0</text>
</g>
<!-- 14 -->
<g id="node8" class="node">
<title>14</title>
<ellipse fill="none" stroke="#000000" cx="149.6935" cy="-117.4935" rx="20.8887" ry="20.8887"/>
<text text-anchor="middle" x="149.6935" y="-113.2935" font-family="Times,serif" font-size="14.00" fill="#000000">14</text>
</g>
<!-- 8&#45;&gt;14 -->
<g id="edge7" class="edge">
<title>8&#45;&gt;14</title>
<path fill="none" stroke="#ffa500" d="M163.6041,-474.0329C170.2544,-467.5547 177.8106,-459.0867 182.6935,-450.1607 194.3448,-428.8617 196.6935,-421.6383 196.6935,-397.3607 196.6935,-397.3607 196.6935,-397.3607 196.6935,-211.6804 196.6935,-186.2438 194.3636,-178.7883 182.6935,-156.1869 179.7162,-150.4209 175.7283,-144.7763 171.5555,-139.6587"/>
<polygon fill="#ffa500" stroke="#ffa500" points="174.1778,-137.3404 164.9647,-132.1087 168.9044,-141.9439 174.1778,-137.3404"/>
<text text-anchor="middle" x="232.7743" y="-301.6673" font-family="Times,serif" font-size="14.00" fill="#ffa500"> !(num &gt;= 0)</text>
</g>
<!-- 12 -->
<g id="node6" class="node">
<title>12</title>
<ellipse fill="none" stroke="#000000" cx="20.6935" cy="-305.8673" rx="20.8887" ry="20.8887"/>
<text text-anchor="middle" x="20.6935" y="-301.6673" font-family="Times,serif" font-size="14.00" fill="#000000">12</text>
</g>
<!-- 9&#45;&gt;12 -->
<g id="edge3" class="edge">
<title>9&#45;&gt;12</title>
<path fill="none" stroke="#000000" d="M84.6837,-395.4983C64.4069,-392.3309 32.3489,-383.8571 17.4279,-361.3607 12.4818,-353.9037 11.5469,-344.5688 12.3664,-335.6946"/>
<polygon fill="#000000" stroke="#000000" points="15.8528,-336.0601 13.999,-325.6287 8.9431,-334.9393 15.8528,-336.0601"/>
<text text-anchor="middle" x="53.3263" y="-348.7607" font-family="Times,serif" font-size="14.00" fill="#000000"> fact *= num</text>
</g>
<!-- 10 -->
<g id="node7" class="node">
<title>10</title>
<ellipse fill="none" stroke="#000000" cx="102.6935" cy="-211.6804" rx="20.8887" ry="20.8887"/>
<text text-anchor="middle" x="102.6935" y="-207.4804" font-family="Times,serif" font-size="14.00" fill="#000000">10</text>
</g>
<!-- 12&#45;&gt;10 -->
<g id="edge4" class="edge">
<title>12&#45;&gt;10</title>
<path fill="none" stroke="#000000" d="M21.5719,-285.1783C22.9687,-273.9363 26.2483,-260.3374 33.7477,-250.3738 43.6735,-237.1864 59.4869,-227.8505 73.4667,-221.6575"/>
<polygon fill="#000000" stroke="#000000" points="74.8226,-224.8844 82.7572,-217.8635 72.1761,-218.404 74.8226,-224.8844"/>
<text text-anchor="middle" x="62.1664" y="-254.5738" font-family="Times,serif" font-size="14.00" fill="#000000"> num &#45;= 1</text>
</g>
<!-- 10&#45;&gt;9 -->
<g id="edge8" class="edge">
<title>10&#45;&gt;9</title>
<path fill="none" stroke="#ffa500" d="M102.6935,-232.4314C102.6935,-265.7614 102.6935,-331.2913 102.6935,-368.9419"/>
<polygon fill="#ffa500" stroke="#ffa500" points="99.1936,-369.2188 102.6935,-379.2188 106.1936,-369.2189 99.1936,-369.2188"/>
<text text-anchor="middle" x="131.7834" y="-301.6673" font-family="Times,serif" font-size="14.00" fill="#ffa500"> num &gt;= 1</text>
</g>
<!-- 10&#45;&gt;14 -->
<g id="edge9" class="edge">
<title>10&#45;&gt;14</title>
<path fill="none" stroke="#ffa500" d="M102.4891,-190.9667C103.1365,-180.1077 105.156,-166.8793 110.5319,-156.1869 114.0738,-149.142 119.4,-142.6193 124.9926,-137.0138"/>
<polygon fill="#ffa500" stroke="#ffa500" points="127.6527,-139.3224 132.6414,-129.9756 122.9128,-134.1713 127.6527,-139.3224"/>
<text text-anchor="middle" x="146.7743" y="-160.3869" font-family="Times,serif" font-size="14.00" fill="#ffa500"> !(num &gt;= 1)</text>
</g>
<!-- 14&#45;&gt;5 -->
<g id="edge5" class="edge">
<title>14&#45;&gt;5</title>
<path fill="none" stroke="#000000" d="M149.6935,-96.7728C149.6935,-84.3586 149.6935,-68.3099 149.6935,-54.2653"/>
<polygon fill="#000000" stroke="#000000" points="153.1936,-54.0092 149.6935,-44.0093 146.1936,-54.0093 153.1936,-54.0092"/>
<text text-anchor="middle" x="180.3969" y="-66.2" font-family="Times,serif" font-size="14.00" fill="#000000"> return fact</text>
</g>
</g>
</svg>
