<?xml version="1.0" encoding="UTF-8" standalone="no"?>
<!DOCTYPE svg PUBLIC "-//W3C//DTD SVG 1.1//EN"
 "http://www.w3.org/Graphics/SVG/1.1/DTD/svg11.dtd">
<!-- Generated by graphviz version 2.40.1 (20161225.0304)
 -->
<!-- Title: control_flow_graph Pages: 1 -->
<svg width="345pt" height="324pt"
 viewBox="0.00 0.00 345.03 323.79" xmlns="http://www.w3.org/2000/svg" xmlns:xlink="http://www.w3.org/1999/xlink">
<g id="graph0" class="graph" transform="scale(1 1) rotate(0) translate(4 319.7869)">
<title>control_flow_graph</title>
<polygon fill="#ffffff" stroke="transparent" points="-4,4 -4,-319.7869 341.0314,-319.7869 341.0314,4 -4,4"/>
<!-- 5 -->
<g id="node1" class="node">
<title>5</title>
<ellipse fill="none" stroke="#000000" cx="22" cy="-22" rx="18" ry="18"/>
<ellipse fill="none" stroke="#000000" cx="22" cy="-22" rx="22" ry="22"/>
<text text-anchor="middle" x="22" y="-17.8" font-family="Times,serif" font-size="14.00" fill="#000000">5</text>
</g>
<!-- 4 -->
<g id="node2" class="node">
<title>4</title>
<ellipse fill="none" stroke="#000000" cx="223" cy="-297.7869" rx="18" ry="18"/>
<text text-anchor="middle" x="223" y="-293.5869" font-family="Times,serif" font-size="14.00" fill="#000000">4</text>
</g>
<!-- 7 -->
<g id="node3" class="node">
<title>7</title>
<ellipse fill="none" stroke="#000000" cx="223" cy="-208.9869" rx="18" ry="18"/>
<text text-anchor="middle" x="223" y="-204.7869" font-family="Times,serif" font-size="14.00" fill="#000000">7</text>
</g>
<!-- 4&#45;&gt;7 -->
<g id="edge1" class="edge">
<title>4&#45;&gt;7</title>
<path fill="none" stroke="#000000" d="M223,-279.3875C223,-267.2818 223,-251.1945 223,-237.4543"/>
<polygon fill="#000000" stroke="#000000" points="226.5001,-237.0589 223,-227.0589 219.5001,-237.059 226.5001,-237.0589"/>
<text text-anchor="middle" x="280.0157" y="-249.1869" font-family="Times,serif" font-size="14.00" fill="#000000"> num = $$params[0]</text>
</g>
<!-- 8 -->
<g id="node4" class="node">
<title>8</title>
<ellipse fill="none" stroke="#000000" cx="200" cy="-117.4935" rx="18" ry="18"/>
<text text-anchor="middle" x="200" y="-113.2935" font-family="Times,serif" font-size="14.00" fill="#000000">8</text>
</g>
<!-- 7&#45;&gt;8 -->
<g id="edge2" class="edge">
<title>7&#45;&gt;8</title>
<path fill="none" stroke="#000000" d="M218.5654,-191.346C215.2562,-178.1824 210.6728,-159.9495 206.8881,-144.8941"/>
<polygon fill="#000000" stroke="#000000" points="210.2535,-143.9251 204.421,-135.0802 203.4647,-145.6317 210.2535,-143.9251"/>
<text text-anchor="middle" x="236.1875" y="-160.3869" font-family="Times,serif" font-size="14.00" fill="#000000"> fact = 1</text>
</g>
<!-- 11 -->
<g id="node5" class="node">
<title>11</title>
<ellipse fill="none" stroke="#000000" cx="140" cy="-22" rx="20.8887" ry="20.8887"/>
<text text-anchor="middle" x="140" y="-17.8" font-family="Times,serif" font-size="14.00" fill="#000000">11</text>
</g>
<!-- 8&#45;&gt;11 -->
<g id="edge3" class="edge">
<title>8&#45;&gt;11</title>
<path fill="none" stroke="#000000" d="M190.36,-102.1508C181.2202,-87.6044 167.3069,-65.4604 156.4188,-48.1314"/>
<polygon fill="#000000" stroke="#000000" points="159.3258,-46.1793 151.0421,-39.5741 153.3987,-49.9035 159.3258,-46.1793"/>
<text text-anchor="middle" x="210.6328" y="-66.2" font-family="Times,serif" font-size="14.00" fill="#000000"> fact *= num</text>
</g>
<!-- 9 -->
<g id="node7" class="node">
<title>9</title>
<ellipse fill="none" stroke="#000000" cx="109" cy="-208.9869" rx="18" ry="18"/>
<text text-anchor="middle" x="109" y="-204.7869" font-family="Times,serif" font-size="14.00" fill="#000000">9</text>
</g>
<!-- 11&#45;&gt;9 -->
<g id="edge5" class="edge">
<title>11&#45;&gt;9</title>
<path fill="none" stroke="#000000" d="M133.0052,-41.7326C128.0103,-56.6606 121.5752,-77.7701 118.0542,-96.8 112.8061,-125.1641 110.5999,-158.1204 109.6725,-180.9413"/>
<polygon fill="#000000" stroke="#000000" points="106.1737,-180.8461 109.3211,-190.9626 113.1694,-181.0915 106.1737,-180.8461"/>
<text text-anchor="middle" x="145.4729" y="-113.2935" font-family="Times,serif" font-size="14.00" fill="#000000"> num &#45;= 1</text>
</g>
<!-- 10 -->
<g id="node6" class="node">
<title>10</title>
<ellipse fill="none" stroke="#000000" cx="22" cy="-117.4935" rx="20.8887" ry="20.8887"/>
<text text-anchor="middle" x="22" y="-113.2935" font-family="Times,serif" font-size="14.00" fill="#000000">10</text>
</g>
<!-- 10&#45;&gt;5 -->
<g id="edge4" class="edge">
<title>10&#45;&gt;5</title>
<path fill="none" stroke="#000000" d="M22,-96.7728C22,-84.3586 22,-68.3099 22,-54.2653"/>
<polygon fill="#000000" stroke="#000000" points="25.5001,-54.0092 22,-44.0093 18.5001,-54.0093 25.5001,-54.0092"/>
<text text-anchor="middle" x="52.7034" y="-66.2" font-family="Times,serif" font-size="14.00" fill="#000000"> return fact</text>
</g>
<!-- 9&#45;&gt;8 -->
<g id="edge6" class="edge">
<title>9&#45;&gt;8</title>
<path fill="none" stroke="#ffa500" d="M118.7649,-193.2405C126.0237,-182.2061 136.58,-167.4731 147.8202,-156.1869 156.2636,-147.709 166.6705,-139.6124 175.9634,-133.0372"/>
<polygon fill="#ffa500" stroke="#ffa500" points="178.1593,-135.7754 184.4312,-127.2365 174.2032,-130.0005 178.1593,-135.7754"/>
<text text-anchor="middle" x="176.0899" y="-160.3869" font-family="Times,serif" font-size="14.00" fill="#ffa500"> num &gt;= 1</text>
</g>
<!-- 9&#45;&gt;10 -->
<g id="edge7" class="edge">
<title>9&#45;&gt;10</title>
<path fill="none" stroke="#ffa500" d="M90.8681,-207.1451C70.4414,-203.9969 38.1058,-195.5412 22.8384,-172.9869 17.9617,-165.7826 16.4206,-156.7572 16.4689,-148.0914"/>
<polygon fill="#ffa500" stroke="#ffa500" points="19.9793,-148.0694 17.1987,-137.846 12.997,-147.572 19.9793,-148.0694"/>
<text text-anchor="middle" x="59.0808" y="-160.3869" font-family="Times,serif" font-size="14.00" fill="#ffa500"> !(num &gt;= 1)</text>
</g>
</g>
</svg>
