<?xml version="1.0" encoding="UTF-8" standalone="no"?>
<!DOCTYPE svg PUBLIC "-//W3C//DTD SVG 1.1//EN"
 "http://www.w3.org/Graphics/SVG/1.1/DTD/svg11.dtd">
<!-- Generated by graphviz version 2.40.1 (20161225.0304)
 -->
<!-- Title: control_flow_graph Pages: 1 -->
<svg width="315pt" height="833pt"
 viewBox="0.00 0.00 315.18 833.12" xmlns="http://www.w3.org/2000/svg" xmlns:xlink="http://www.w3.org/1999/xlink">
<g id="graph0" class="graph" transform="scale(1 1) rotate(0) translate(4 829.1214)">
<title>control_flow_graph</title>
<polygon fill="#ffffff" stroke="transparent" points="-4,4 -4,-829.1214 311.1798,-829.1214 311.1798,4 -4,4"/>
<!-- 5 -->
<g id="node1" class="node">
<title>5</title>
<ellipse fill="none" stroke="#000000" cx="93" cy="-22" rx="18" ry="18"/>
<ellipse fill="none" stroke="#000000" cx="93" cy="-22" rx="22" ry="22"/>
<text text-anchor="middle" x="93" y="-17.8" font-family="Times,serif" font-size="14.00" fill="#000000">5</text>
</g>
<!-- 4 -->
<g id="node2" class="node">
<title>4</title>
<ellipse fill="none" stroke="#000000" cx="55" cy="-807.1214" rx="18" ry="18"/>
<text text-anchor="middle" x="55" y="-802.9214" font-family="Times,serif" font-size="14.00" fill="#000000">4</text>
</g>
<!-- 7 -->
<g id="node3" class="node">
<title>7</title>
<ellipse fill="none" stroke="#000000" cx="55" cy="-718.3214" rx="18" ry="18"/>
<text text-anchor="middle" x="55" y="-714.1214" font-family="Times,serif" font-size="14.00" fill="#000000">7</text>
</g>
<!-- 4&#45;&gt;7 -->
<g id="edge1" class="edge">
<title>4&#45;&gt;7</title>
<path fill="none" stroke="#000000" d="M55,-788.722C55,-776.6163 55,-760.5291 55,-746.7888"/>
<polygon fill="#000000" stroke="#000000" points="58.5001,-746.3934 55,-736.3934 51.5001,-746.3935 58.5001,-746.3934"/>
<text text-anchor="middle" x="112.0157" y="-758.5214" font-family="Times,serif" font-size="14.00" fill="#000000"> num = $$params[0]</text>
</g>
<!-- 8 -->
<g id="node4" class="node">
<title>8</title>
<ellipse fill="none" stroke="#000000" cx="18" cy="-575.5214" rx="18" ry="18"/>
<text text-anchor="middle" x="18" y="-571.3214" font-family="Times,serif" font-size="14.00" fill="#000000">8</text>
</g>
<!-- 7&#45;&gt;8 -->
<g id="edge8" class="edge">
<title>7&#45;&gt;8</title>
<path fill="none" stroke="#ffa500" d="M39.7267,-708.6552C31.2209,-702.3216 21.4217,-693.2083 16.7148,-682.3214 5.8378,-657.1632 7.9498,-625.4521 11.6776,-603.1426"/>
<polygon fill="#ffa500" stroke="#ffa500" points="15.1735,-603.4913 13.5875,-593.0158 8.2947,-602.1939 15.1735,-603.4913"/>
<text text-anchor="middle" x="42.1426" y="-669.7214" font-family="Times,serif" font-size="14.00" fill="#ffa500"> num &lt; 0</text>
</g>
<!-- 9 -->
<g id="node11" class="node">
<title>9</title>
<ellipse fill="none" stroke="#000000" cx="92" cy="-629.5214" rx="18" ry="18"/>
<text text-anchor="middle" x="92" y="-625.3214" font-family="Times,serif" font-size="14.00" fill="#000000">9</text>
</g>
<!-- 7&#45;&gt;9 -->
<g id="edge9" class="edge">
<title>7&#45;&gt;9</title>
<path fill="none" stroke="#ffa500" d="M61.9594,-701.6188C67.3341,-688.7196 74.8726,-670.6272 81.0532,-655.7939"/>
<polygon fill="#ffa500" stroke="#ffa500" points="84.4563,-656.7261 85.0718,-646.1491 77.9948,-654.0337 84.4563,-656.7261"/>
<text text-anchor="middle" x="109.1335" y="-669.7214" font-family="Times,serif" font-size="14.00" fill="#ffa500"> !(num &lt; 0)</text>
</g>
<!-- 8&#45;&gt;5 -->
<g id="edge2" class="edge">
<title>8&#45;&gt;5</title>
<path fill="none" stroke="#000000" d="M18,-557.4255C18,-534.5891 18,-494.104 18,-459.4411 18,-459.4411 18,-459.4411 18,-117.4935 18,-85.2976 44.6938,-57.5293 66.231,-40.3648"/>
<polygon fill="#000000" stroke="#000000" points="68.6208,-42.9444 74.4607,-34.1043 64.3827,-37.3732 68.6208,-42.9444"/>
<text text-anchor="middle" x="41.7132" y="-301.6673" font-family="Times,serif" font-size="14.00" fill="#000000"> return 0</text>
</g>
<!-- 10 -->
<g id="node5" class="node">
<title>10</title>
<ellipse fill="none" stroke="#000000" cx="92" cy="-459.4411" rx="20.8887" ry="20.8887"/>
<text text-anchor="middle" x="92" y="-455.2411" font-family="Times,serif" font-size="14.00" fill="#000000">10</text>
</g>
<!-- 10&#45;&gt;5 -->
<g id="edge3" class="edge">
<title>10&#45;&gt;5</title>
<path fill="none" stroke="#000000" d="M92.3109,-438.6302C92.6045,-417.1667 93,-382.7248 93,-352.9607 93,-352.9607 93,-352.9607 93,-117.4935 93,-96.5667 93,-73.0603 93,-54.606"/>
<polygon fill="#000000" stroke="#000000" points="96.5001,-54.3818 93,-44.3818 89.5001,-54.3818 96.5001,-54.3818"/>
<text text-anchor="middle" x="116.7132" y="-254.5738" font-family="Times,serif" font-size="14.00" fill="#000000"> return 1</text>
</g>
<!-- 11 -->
<g id="node6" class="node">
<title>11</title>
<ellipse fill="none" stroke="#000000" cx="173" cy="-518.828" rx="20.8887" ry="20.8887"/>
<text text-anchor="middle" x="173" y="-514.628" font-family="Times,serif" font-size="14.00" fill="#000000">11</text>
</g>
<!-- 12 -->
<g id="node7" class="node">
<title>12</title>
<ellipse fill="none" stroke="#000000" cx="173" cy="-400.0542" rx="20.8887" ry="20.8887"/>
<text text-anchor="middle" x="173" y="-395.8542" font-family="Times,serif" font-size="14.00" fill="#000000">12</text>
</g>
<!-- 11&#45;&gt;12 -->
<g id="edge4" class="edge">
<title>11&#45;&gt;12</title>
<path fill="none" stroke="#000000" d="M173,-497.867C173,-479.2943 173,-451.9343 173,-430.8701"/>
<polygon fill="#000000" stroke="#000000" points="176.5001,-430.8056 173,-420.8056 169.5001,-430.8056 176.5001,-430.8056"/>
<text text-anchor="middle" x="196.1875" y="-455.2411" font-family="Times,serif" font-size="14.00" fill="#000000"> fact = 1</text>
</g>
<!-- 15 -->
<g id="node8" class="node">
<title>15</title>
<ellipse fill="none" stroke="#000000" cx="159" cy="-305.8673" rx="20.8887" ry="20.8887"/>
<text text-anchor="middle" x="159" y="-301.6673" font-family="Times,serif" font-size="14.00" fill="#000000">15</text>
</g>
<!-- 12&#45;&gt;15 -->
<g id="edge5" class="edge">
<title>12&#45;&gt;15</title>
<path fill="none" stroke="#000000" d="M161.0571,-382.7317C157.302,-376.3136 153.6402,-368.7853 151.7344,-361.3607 149.6451,-353.2213 149.7967,-344.248 150.9135,-335.9331"/>
<polygon fill="#000000" stroke="#000000" points="154.3986,-336.3309 152.7484,-325.8654 147.512,-335.0758 154.3986,-336.3309"/>
<text text-anchor="middle" x="187.6328" y="-348.7607" font-family="Times,serif" font-size="14.00" fill="#000000"> fact *= num</text>
</g>
<!-- 13 -->
<g id="node10" class="node">
<title>13</title>
<ellipse fill="none" stroke="#000000" cx="163" cy="-211.6804" rx="20.8887" ry="20.8887"/>
<text text-anchor="middle" x="163" y="-207.4804" font-family="Times,serif" font-size="14.00" fill="#000000">13</text>
</g>
<!-- 15&#45;&gt;13 -->
<g id="edge7" class="edge">
<title>15&#45;&gt;13</title>
<path fill="none" stroke="#000000" d="M159.8877,-284.9641C160.416,-272.5262 161.096,-256.5144 161.6855,-242.6318"/>
<polygon fill="#000000" stroke="#000000" points="165.1872,-242.6646 162.1148,-232.5251 158.1935,-242.3675 165.1872,-242.6646"/>
<text text-anchor="middle" x="189.4729" y="-254.5738" font-family="Times,serif" font-size="14.00" fill="#000000"> num &#45;= 1</text>
</g>
<!-- 14 -->
<g id="node9" class="node">
<title>14</title>
<ellipse fill="none" stroke="#000000" cx="149" cy="-117.4935" rx="20.8887" ry="20.8887"/>
<text text-anchor="middle" x="149" y="-113.2935" font-family="Times,serif" font-size="14.00" fill="#000000">14</text>
</g>
<!-- 14&#45;&gt;5 -->
<g id="edge6" class="edge">
<title>14&#45;&gt;5</title>
<path fill="none" stroke="#000000" d="M138.4668,-99.5319C130.3094,-85.6215 118.8587,-66.0952 109.4897,-50.1189"/>
<polygon fill="#000000" stroke="#000000" points="112.3324,-48.0474 104.2546,-41.1917 106.2941,-51.5884 112.3324,-48.0474"/>
<text text-anchor="middle" x="157.7034" y="-66.2" font-family="Times,serif" font-size="14.00" fill="#000000"> return fact</text>
</g>
<!-- 13&#45;&gt;12 -->
<g id="edge12" class="edge">
<title>13&#45;&gt;12</title>
<path fill="none" stroke="#ffa500" d="M182.6268,-219.0315C196.0287,-225.1926 212.7897,-235.4109 221,-250.3738 278.397,-354.9772 233.7393,-339.4704 223,-361.3607 218.1414,-371.2642 209.3916,-379.3553 200.5547,-385.5306"/>
<polygon fill="#ffa500" stroke="#ffa500" points="198.4004,-382.7524 191.8297,-391.0636 202.1492,-388.6639 198.4004,-382.7524"/>
<text text-anchor="middle" x="278.0899" y="-301.6673" font-family="Times,serif" font-size="14.00" fill="#ffa500"> num &gt;= 1</text>
</g>
<!-- 13&#45;&gt;14 -->
<g id="edge13" class="edge">
<title>13&#45;&gt;14</title>
<path fill="none" stroke="#ffa500" d="M159.8929,-190.7772C158.0313,-178.2529 155.6311,-162.105 153.5577,-148.1559"/>
<polygon fill="#ffa500" stroke="#ffa500" points="156.9825,-147.3908 152.0502,-138.0141 150.0586,-148.42 156.9825,-147.3908"/>
<text text-anchor="middle" x="193.0808" y="-160.3869" font-family="Times,serif" font-size="14.00" fill="#ffa500"> !(num &gt;= 1)</text>
</g>
<!-- 9&#45;&gt;10 -->
<g id="edge10" class="edge">
<title>9&#45;&gt;10</title>
<path fill="none" stroke="#ffa500" d="M90.1035,-611.5968C89.5776,-605.8324 89.0799,-599.4136 88.8202,-593.5214 87.2633,-558.1998 88.672,-517.6081 90.076,-490.4247"/>
<polygon fill="#ffa500" stroke="#ffa500" points="93.5755,-490.5285 90.628,-480.352 86.586,-490.1455 93.5755,-490.5285"/>
<text text-anchor="middle" x="118.0899" y="-571.3214" font-family="Times,serif" font-size="14.00" fill="#ffa500"> num == 0</text>
</g>
<!-- 9&#45;&gt;11 -->
<g id="edge11" class="edge">
<title>9&#45;&gt;11</title>
<path fill="none" stroke="#ffa500" d="M108.8684,-623.2274C122.1566,-617.4396 140.1864,-607.6085 151,-593.5214 160.6707,-580.9232 166.0986,-564.157 169.1412,-549.7017"/>
<polygon fill="#ffa500" stroke="#ffa500" points="172.6185,-550.1415 170.9617,-539.677 165.7312,-548.8907 172.6185,-550.1415"/>
<text text-anchor="middle" x="194.4729" y="-571.3214" font-family="Times,serif" font-size="14.00" fill="#ffa500"> num != 0</text>
</g>
</g>
</svg>
