<?xml version="1.0" encoding="UTF-8" standalone="no"?>
<!DOCTYPE svg PUBLIC "-//W3C//DTD SVG 1.1//EN"
 "http://www.w3.org/Graphics/SVG/1.1/DTD/svg11.dtd">
<!-- Generated by graphviz version 2.40.1 (20161225.0304)
 -->
<!-- Title: control_flow_graph Pages: 1 -->
<svg width="649pt" height="981pt"
 viewBox="0.00 0.00 649.09 981.11" xmlns="http://www.w3.org/2000/svg" xmlns:xlink="http://www.w3.org/1999/xlink">
<g id="graph0" class="graph" transform="scale(1 1) rotate(0) translate(4 977.1083)">
<title>control_flow_graph</title>
<polygon fill="#ffffff" stroke="transparent" points="-4,4 -4,-977.1083 645.0902,-977.1083 645.0902,4 -4,4"/>
<!-- 5 -->
<g id="node1" class="node">
<title>5</title>
<ellipse fill="none" stroke="#000000" cx="34" cy="-22" rx="18" ry="18"/>
<ellipse fill="none" stroke="#000000" cx="34" cy="-22" rx="22" ry="22"/>
<text text-anchor="middle" x="34" y="-17.8" font-family="Times,serif" font-size="14.00" fill="#000000">5</text>
</g>
<!-- 4 -->
<g id="node2" class="node">
<title>4</title>
<ellipse fill="none" stroke="#000000" cx="62" cy="-955.1083" rx="18" ry="18"/>
<text text-anchor="middle" x="62" y="-950.9083" font-family="Times,serif" font-size="14.00" fill="#000000">4</text>
</g>
<!-- 7 -->
<g id="node3" class="node">
<title>7</title>
<ellipse fill="none" stroke="#000000" cx="62" cy="-866.3083" rx="18" ry="18"/>
<text text-anchor="middle" x="62" y="-862.1083" font-family="Times,serif" font-size="14.00" fill="#000000">7</text>
</g>
<!-- 4&#45;&gt;7 -->
<g id="edge1" class="edge">
<title>4&#45;&gt;7</title>
<path fill="none" stroke="#000000" d="M62,-936.7089C62,-924.6032 62,-908.516 62,-894.7757"/>
<polygon fill="#000000" stroke="#000000" points="65.5001,-894.3803 62,-884.3804 58.5001,-894.3804 65.5001,-894.3803"/>
<text text-anchor="middle" x="119.0157" y="-906.5083" font-family="Times,serif" font-size="14.00" fill="#000000"> num = $$params[0]</text>
</g>
<!-- 8 -->
<g id="node4" class="node">
<title>8</title>
<ellipse fill="none" stroke="#000000" cx="62" cy="-777.5083" rx="18" ry="18"/>
<text text-anchor="middle" x="62" y="-773.3083" font-family="Times,serif" font-size="14.00" fill="#000000">8</text>
</g>
<!-- 7&#45;&gt;8 -->
<g id="edge2" class="edge">
<title>7&#45;&gt;8</title>
<path fill="none" stroke="#000000" d="M62,-847.9089C62,-835.8032 62,-819.716 62,-805.9757"/>
<polygon fill="#000000" stroke="#000000" points="65.5001,-805.5803 62,-795.5804 58.5001,-805.5804 65.5001,-805.5803"/>
<text text-anchor="middle" x="85.1875" y="-817.7083" font-family="Times,serif" font-size="14.00" fill="#000000"> fact = 1</text>
</g>
<!-- 9 -->
<g id="node5" class="node">
<title>9</title>
<ellipse fill="none" stroke="#000000" cx="18" cy="-629.3214" rx="18" ry="18"/>
<text text-anchor="middle" x="18" y="-625.1214" font-family="Times,serif" font-size="14.00" fill="#000000">9</text>
</g>
<!-- 8&#45;&gt;9 -->
<g id="edge12" class="edge">
<title>8&#45;&gt;9</title>
<path fill="none" stroke="#ffa500" d="M45.2247,-769.7267C34.4035,-763.704 21.2157,-754.2372 14.9256,-741.5083 1.7671,-714.8801 5.3698,-680.1844 10.4379,-656.4713"/>
<polygon fill="#ffa500" stroke="#ffa500" points="13.847,-657.2635 12.7346,-646.7272 7.0337,-655.6575 13.847,-657.2635"/>
<text text-anchor="middle" x="48.0372" y="-728.9083" font-family="Times,serif" font-size="14.00" fill="#ffa500"> num === 0</text>
</g>
<!-- 10 -->
<g id="node16" class="node">
<title>10</title>
<ellipse fill="none" stroke="#000000" cx="107" cy="-686.0149" rx="20.8887" ry="20.8887"/>
<text text-anchor="middle" x="107" y="-681.8149" font-family="Times,serif" font-size="14.00" fill="#000000">10</text>
</g>
<!-- 8&#45;&gt;10 -->
<g id="edge13" class="edge">
<title>8&#45;&gt;10</title>
<path fill="none" stroke="#ffa500" d="M72.5147,-762.4737C76.6875,-756.1603 81.3511,-748.639 85,-741.5083 89.2877,-733.1293 93.3021,-723.7111 96.6974,-715.0456"/>
<polygon fill="#ffa500" stroke="#ffa500" points="99.9767,-716.2687 100.2493,-705.6774 93.4314,-713.787 99.9767,-716.2687"/>
<text text-anchor="middle" x="124.4202" y="-728.9083" font-family="Times,serif" font-size="14.00" fill="#ffa500"> num !== 0</text>
</g>
<!-- 9&#45;&gt;5 -->
<g id="edge3" class="edge">
<title>9&#45;&gt;5</title>
<path fill="none" stroke="#000000" d="M18,-610.9485C18,-590.205 18,-555.4453 18,-525.5345 18,-525.5345 18,-525.5345 18,-117.4935 18,-95.8935 22.0311,-71.9184 26.0465,-53.3945"/>
<polygon fill="#000000" stroke="#000000" points="29.5042,-53.9738 28.3139,-43.4461 22.6792,-52.4182 29.5042,-53.9738"/>
<text text-anchor="middle" x="41.7132" y="-332.9607" font-family="Times,serif" font-size="14.00" fill="#000000"> return 1</text>
</g>
<!-- 11 -->
<g id="node6" class="node">
<title>11</title>
<ellipse fill="none" stroke="#000000" cx="67" cy="-572.628" rx="20.8887" ry="20.8887"/>
<text text-anchor="middle" x="67" y="-568.428" font-family="Times,serif" font-size="14.00" fill="#000000">11</text>
</g>
<!-- 14 -->
<g id="node7" class="node">
<title>14</title>
<ellipse fill="none" stroke="#000000" cx="70" cy="-478.4411" rx="20.8887" ry="20.8887"/>
<text text-anchor="middle" x="70" y="-474.2411" font-family="Times,serif" font-size="14.00" fill="#000000">14</text>
</g>
<!-- 11&#45;&gt;14 -->
<g id="edge4" class="edge">
<title>11&#45;&gt;14</title>
<path fill="none" stroke="#000000" d="M61.1978,-552.6017C58.8552,-542.0537 57.0566,-528.899 58.7344,-517.1345 59.1511,-514.2124 59.7365,-511.2026 60.4235,-508.2133"/>
<polygon fill="#000000" stroke="#000000" points="63.8756,-508.8495 63.054,-498.2866 57.1092,-507.0565 63.8756,-508.8495"/>
<text text-anchor="middle" x="94.6328" y="-521.3345" font-family="Times,serif" font-size="14.00" fill="#000000"> fact *= num</text>
</g>
<!-- 12 -->
<g id="node8" class="node">
<title>12</title>
<ellipse fill="none" stroke="#000000" cx="83" cy="-384.2542" rx="20.8887" ry="20.8887"/>
<text text-anchor="middle" x="83" y="-380.0542" font-family="Times,serif" font-size="14.00" fill="#000000">12</text>
</g>
<!-- 14&#45;&gt;12 -->
<g id="edge5" class="edge">
<title>14&#45;&gt;12</title>
<path fill="none" stroke="#000000" d="M71.3475,-457.5576C72.1612,-447.128 73.3716,-434.3362 75.0542,-422.9476 75.4539,-420.2424 75.9218,-417.4412 76.4271,-414.6395"/>
<polygon fill="#000000" stroke="#000000" points="79.8942,-415.1451 78.365,-404.6612 73.0226,-413.8105 79.8942,-415.1451"/>
<text text-anchor="middle" x="103.4729" y="-427.1476" font-family="Times,serif" font-size="14.00" fill="#000000"> num &#45;= 1</text>
</g>
<!-- 12&#45;&gt;11 -->
<g id="edge16" class="edge">
<title>12&#45;&gt;11</title>
<path fill="none" stroke="#ffa500" d="M101.6869,-394.1175C112.1066,-400.7385 124.135,-410.5223 130,-422.9476 151.0558,-467.5554 154.0809,-490.8844 130,-533.9345 122.7097,-546.9676 109.0337,-556.1463 96.282,-562.282"/>
<polygon fill="#ffa500" stroke="#ffa500" points="94.6047,-559.1948 86.8319,-566.3944 97.3979,-565.6134 94.6047,-559.1948"/>
<text text-anchor="middle" x="176.0899" y="-474.2411" font-family="Times,serif" font-size="14.00" fill="#ffa500"> num &gt;= 1</text>
</g>
<!-- 24 -->
<g id="node12" class="node">
<title>24</title>
<ellipse fill="none" stroke="#000000" cx="83" cy="-117.4935" rx="20.8887" ry="20.8887"/>
<text text-anchor="middle" x="83" y="-113.2935" font-family="Times,serif" font-size="14.00" fill="#000000">24</text>
</g>
<!-- 12&#45;&gt;24 -->
<g id="edge17" class="edge">
<title>12&#45;&gt;24</title>
<path fill="none" stroke="#ffa500" d="M83,-363.3219C83,-316.5717 83,-203.4719 83,-148.509"/>
<polygon fill="#ffa500" stroke="#ffa500" points="86.5001,-148.3284 83,-138.3285 79.5001,-148.3285 86.5001,-148.3284"/>
<text text-anchor="middle" x="119.0808" y="-238.7738" font-family="Times,serif" font-size="14.00" fill="#ffa500"> !(num &gt;= 1)</text>
</g>
<!-- 16 -->
<g id="node9" class="node">
<title>16</title>
<ellipse fill="none" stroke="#000000" cx="374" cy="-572.628" rx="20.8887" ry="20.8887"/>
<text text-anchor="middle" x="374" y="-568.428" font-family="Times,serif" font-size="14.00" fill="#000000">16</text>
</g>
<!-- 17 -->
<g id="node10" class="node">
<title>17</title>
<ellipse fill="none" stroke="#000000" cx="358" cy="-478.4411" rx="20.8887" ry="20.8887"/>
<text text-anchor="middle" x="358" y="-474.2411" font-family="Times,serif" font-size="14.00" fill="#000000">17</text>
</g>
<!-- 16&#45;&gt;17 -->
<g id="edge6" class="edge">
<title>16&#45;&gt;17</title>
<path fill="none" stroke="#000000" d="M370.5282,-552.1908C368.4043,-539.6878 365.6454,-523.447 363.2574,-509.3896"/>
<polygon fill="#000000" stroke="#000000" points="366.6456,-508.4362 361.5202,-499.1636 359.7445,-509.6086 366.6456,-508.4362"/>
<text text-anchor="middle" x="435.3882" y="-521.3345" font-family="Times,serif" font-size="14.00" fill="#000000"> console.log(&#39;else node&#39;)</text>
</g>
<!-- 19 -->
<g id="node11" class="node">
<title>19</title>
<ellipse fill="none" stroke="#000000" cx="175" cy="-195.8804" rx="20.8887" ry="20.8887"/>
<text text-anchor="middle" x="175" y="-191.6804" font-family="Times,serif" font-size="14.00" fill="#000000">19</text>
</g>
<!-- 17&#45;&gt;19 -->
<g id="edge19" class="edge">
<title>17&#45;&gt;19</title>
<path fill="none" stroke="#ffa500" d="M339.7687,-468.3424C306.7919,-449.0701 237.4327,-403.7334 202.6136,-345.5607 180.6055,-308.7916 175.3994,-258.5425 174.5397,-226.6466"/>
<polygon fill="#ffa500" stroke="#ffa500" points="178.0385,-226.5285 174.3968,-216.5793 171.0392,-226.628 178.0385,-226.5285"/>
<text text-anchor="middle" x="216.1932" y="-332.9607" font-family="Times,serif" font-size="14.00" fill="#ffa500"> !this</text>
</g>
<!-- 18 -->
<g id="node17" class="node">
<title>18</title>
<ellipse fill="none" stroke="#000000" cx="307" cy="-384.2542" rx="20.8887" ry="20.8887"/>
<text text-anchor="middle" x="307" y="-380.0542" font-family="Times,serif" font-size="14.00" fill="#000000">18</text>
</g>
<!-- 17&#45;&gt;18 -->
<g id="edge18" class="edge">
<title>17&#45;&gt;18</title>
<path fill="none" stroke="#ffa500" d="M347.924,-459.8328C340.4717,-446.0698 330.2041,-427.1075 321.8179,-411.62"/>
<polygon fill="#ffa500" stroke="#ffa500" points="324.7209,-409.6304 316.8815,-402.5033 318.5653,-412.9635 324.7209,-409.6304"/>
<text text-anchor="middle" x="346.8629" y="-427.1476" font-family="Times,serif" font-size="14.00" fill="#ffa500"> this</text>
</g>
<!-- 19&#45;&gt;24 -->
<g id="edge7" class="edge">
<title>19&#45;&gt;24</title>
<path fill="none" stroke="#000000" d="M158.9748,-182.2264C144.5954,-169.9746 123.2943,-151.8255 106.903,-137.8595"/>
<polygon fill="#000000" stroke="#000000" points="108.7232,-134.8123 98.8415,-130.9909 104.1834,-140.1406 108.7232,-134.8123"/>
</g>
<!-- 24&#45;&gt;5 -->
<g id="edge11" class="edge">
<title>24&#45;&gt;5</title>
<path fill="none" stroke="#000000" d="M73.5523,-99.0814C66.5511,-85.4371 56.8724,-66.5747 48.8419,-50.9245"/>
<polygon fill="#000000" stroke="#000000" points="51.7728,-48.9697 44.0934,-41.6705 45.5448,-52.1655 51.7728,-48.9697"/>
<text text-anchor="middle" x="93.7034" y="-66.2" font-family="Times,serif" font-size="14.00" fill="#000000"> return fact</text>
</g>
<!-- 20 -->
<g id="node13" class="node">
<title>20</title>
<ellipse fill="none" stroke="#000000" cx="225" cy="-290.0673" rx="20.8887" ry="20.8887"/>
<text text-anchor="middle" x="225" y="-285.8673" font-family="Times,serif" font-size="14.00" fill="#000000">20</text>
</g>
<!-- 20&#45;&gt;19 -->
<g id="edge8" class="edge">
<title>20&#45;&gt;19</title>
<path fill="none" stroke="#000000" d="M215.1216,-271.459C207.8625,-257.7847 197.8789,-238.9782 189.6867,-223.5463"/>
<polygon fill="#000000" stroke="#000000" points="192.6382,-221.6415 184.8579,-214.45 186.4554,-224.9237 192.6382,-221.6415"/>
<text text-anchor="middle" x="219.2949" y="-238.7738" font-family="Times,serif" font-size="14.00" fill="#000000"> break</text>
</g>
<!-- 21 -->
<g id="node14" class="node">
<title>21</title>
<ellipse fill="none" stroke="#000000" cx="312" cy="-290.0673" rx="20.8887" ry="20.8887"/>
<text text-anchor="middle" x="312" y="-285.8673" font-family="Times,serif" font-size="14.00" fill="#000000">21</text>
</g>
<!-- 22 -->
<g id="node15" class="node">
<title>22</title>
<ellipse fill="none" stroke="#000000" cx="353" cy="-195.8804" rx="20.8887" ry="20.8887"/>
<text text-anchor="middle" x="353" y="-191.6804" font-family="Times,serif" font-size="14.00" fill="#000000">22</text>
</g>
<!-- 21&#45;&gt;22 -->
<g id="edge9" class="edge">
<title>21&#45;&gt;22</title>
<path fill="none" stroke="#000000" d="M315.7812,-269.4692C318.1693,-258.7647 321.7718,-245.6427 326.8202,-234.5738 328.8985,-230.017 331.4974,-225.4072 334.2449,-221.0351"/>
<polygon fill="#000000" stroke="#000000" points="337.3134,-222.7432 339.9737,-212.4878 331.4987,-218.8458 337.3134,-222.7432"/>
<text text-anchor="middle" x="348.0899" y="-238.7738" font-family="Times,serif" font-size="14.00" fill="#000000"> num++</text>
</g>
<!-- 22&#45;&gt;17 -->
<g id="edge10" class="edge">
<title>22&#45;&gt;17</title>
<path fill="none" stroke="#000000" d="M363.5044,-214.1927C366.5484,-220.4517 369.4637,-227.6291 371,-234.5738 372.6127,-241.8642 371.1584,-243.9088 371,-251.3738 369.2218,-335.1521 370.1539,-356.2564 363,-439.7476 362.7824,-442.2868 362.5208,-444.9155 362.2328,-447.5524"/>
<polygon fill="#000000" stroke="#000000" points="358.7445,-447.2464 361.0284,-457.5921 365.6947,-448.0802 358.7445,-447.2464"/>
<text text-anchor="middle" x="394.8552" y="-332.9607" font-family="Times,serif" font-size="14.00" fill="#000000"> continue</text>
</g>
<!-- 10&#45;&gt;11 -->
<g id="edge14" class="edge">
<title>10&#45;&gt;11</title>
<path fill="none" stroke="#ffa500" d="M88.8275,-675.1913C79.4147,-668.4794 68.8269,-658.9247 63.629,-647.3214 57.4548,-633.5388 57.5888,-616.8565 59.5724,-602.7567"/>
<polygon fill="#ffa500" stroke="#ffa500" points="63.0791,-603.0258 61.3761,-592.5688 56.1863,-601.8055 63.0791,-603.0258"/>
<text text-anchor="middle" x="211.1855" y="-625.1214" font-family="Times,serif" font-size="14.00" fill="#ffa500"> ((num &gt;= 0) &amp;&amp; (fact === 1)) &amp;&amp; (num &lt;= 10000)</text>
</g>
<!-- 10&#45;&gt;16 -->
<g id="edge15" class="edge">
<title>10&#45;&gt;16</title>
<path fill="none" stroke="#ffa500" d="M127.9908,-684.1419C185.3,-678.8412 341.284,-663.0939 358,-647.3214 369.7558,-636.2292 373.9447,-618.7694 375.107,-603.5189"/>
<polygon fill="#ffa500" stroke="#ffa500" points="378.6085,-603.5429 375.484,-593.4193 371.6134,-603.2817 378.6085,-603.5429"/>
<text text-anchor="middle" x="507.0451" y="-625.1214" font-family="Times,serif" font-size="14.00" fill="#ffa500"> (!(num &gt;= 0) || (fact !== 1)) || !(num &lt;= 10000)</text>
</g>
<!-- 18&#45;&gt;20 -->
<g id="edge20" class="edge">
<title>18&#45;&gt;20</title>
<path fill="none" stroke="#ffa500" d="M287.7325,-376.4302C274.045,-369.9834 256.1532,-359.6155 244.8202,-345.5607 238.8948,-338.2122 234.6659,-328.9515 231.6803,-320.1117"/>
<polygon fill="#ffa500" stroke="#ffa500" points="235.0099,-319.0286 228.8137,-310.4346 228.2982,-321.0169 235.0099,-319.0286"/>
<text text-anchor="middle" x="273.0899" y="-332.9607" font-family="Times,serif" font-size="14.00" fill="#ffa500"> num == 0</text>
</g>
<!-- 18&#45;&gt;21 -->
<g id="edge21" class="edge">
<title>18&#45;&gt;21</title>
<path fill="none" stroke="#ffa500" d="M306.9888,-363.42C307.0867,-353.0025 307.3631,-340.2067 308.0542,-328.7607 308.2073,-326.2247 308.4007,-323.5984 308.6191,-320.963"/>
<polygon fill="#ffa500" stroke="#ffa500" points="312.1114,-321.2075 309.554,-310.926 305.1416,-320.5583 312.1114,-321.2075"/>
<text text-anchor="middle" x="335.4729" y="-332.9607" font-family="Times,serif" font-size="14.00" fill="#ffa500"> num != 0</text>
</g>
</g>
</svg>
